<svg id="Layer_1" data-name="Layer 1" xmlns="http://www.w3.org/2000/svg" viewBox="0 0 1920 1920"><defs><style>.cls-1{fill:#fff;stroke:#000;stroke-miterlimit:10;stroke-width:10px;}</style></defs><polygon class="cls-1" points="57.8 29.8 75.16 730.52 275.26 529.93 558.43 520.39 57.8 29.8"/><path class="cls-1" d="M998.43,797.44H943.81c.21,3,.33,5.95.33,8.95v44.93c0,37.45-16.39,72.29-46.15,98.09C870.06,973.61,833.34,987,794.59,987h-398c-38.75,0-75.48-13.34-103.4-37.54C263.43,923.61,247,888.77,247,851.32V806.39c0-3,.12-6,.32-8.95H192.75a19.37,19.37,0,0,0-19.37,19.37v1054a19.37,19.37,0,0,0,19.37,19.37H998.43a19.36,19.36,0,0,0,19.36-19.37v-1054A19.36,19.36,0,0,0,998.43,797.44ZM850.65,1454.12H705.89v144.76H485.29V1454.12H340.53v-220.6H485.29V1088.76h220.6v144.76H850.65Z"/><path class="cls-1" d="M794.59,715.76H771.76c0-84.34-78.87-152.71-176.17-152.71S419.42,631.42,419.42,715.76H396.59c-57.74,0-104.55,40.58-104.55,90.63v44.93c0,50,46.81,90.63,104.55,90.63h398c57.74,0,104.55-40.58,104.55-90.63V806.39C899.14,756.34,852.33,715.76,794.59,715.76Zm-199-79c50.34,0,91.15,35.38,91.15,79s-40.81,79-91.15,79-91.15-35.37-91.15-79S545.25,636.75,595.59,636.75Z"/></svg>