<svg id="Layer_1" data-name="Layer 1" xmlns="http://www.w3.org/2000/svg" viewBox="0 0 1920 1920"><defs><style>.cls-1{fill:#fff;stroke:#000;stroke-miterlimit:10;stroke-width:10px;}</style></defs><polygon class="cls-1" points="57.8 29.8 75.16 730.52 275.26 529.93 558.43 520.39 57.8 29.8"/><path class="cls-1" d="M794.59,715.76H771.76c0-84.34-78.87-152.71-176.17-152.71S419.42,631.42,419.42,715.76H396.59c-57.74,0-104.55,40.58-104.55,90.63v44.93c0,50,46.81,90.63,104.55,90.63h398c57.74,0,104.55-40.58,104.55-90.63V806.39C899.14,756.34,852.33,715.76,794.59,715.76Zm-199-79c50.34,0,91.15,35.38,91.15,79s-40.81,79-91.15,79-91.15-35.37-91.15-79S545.25,636.75,595.59,636.75Z"/><path class="cls-1" d="M998.43,797.44H943.82c.2,3,.32,5.95.32,8.95v44.93c0,37.45-16.39,72.29-46.15,98.09C870.07,973.61,833.34,987,794.59,987h-398c-38.75,0-75.48-13.34-103.4-37.54C263.43,923.61,247,888.77,247,851.32V806.39c0-3,.12-6,.32-8.95H192.75a19.37,19.37,0,0,0-19.37,19.37v1054a19.37,19.37,0,0,0,19.37,19.37H998.43a19.37,19.37,0,0,0,19.37-19.37v-1054A19.37,19.37,0,0,0,998.43,797.44ZM595.5,1730.63C426.76,1482.08,256.71,1398,256.71,1398l80.35-112.13C470.55,1380.3,564.53,1490,564.53,1490,800.51,1127.14,879,1110.2,879,1110.2l56.26,74.6C692.12,1327,595.5,1730.63,595.5,1730.63Z"/></svg>